<?xml version="1.0" encoding="UTF-8" ?>
<!DOCTYPE svg PUBLIC "-//W3C//DTD SVG 1.1//EN" "http://www.w3.org/Graphics/SVG/1.1/DTD/svg11.dtd">
<svg width="214pt" height="214pt" viewBox="0 0 214 214" version="1.1" xmlns="http://www.w3.org/2000/svg">
<g id="#376fb7ff">
<path fill="#376fb7" opacity="1.00" d=" M 88.39 1.68 C 112.83 -2.42 138.73 2.13 160.05 14.86 C 183.50 28.52 201.13 51.65 208.43 77.76 C 212.20 90.49 212.50 103.90 211.72 117.06 C 209.23 142.51 197.07 166.90 178.17 184.15 C 159.07 201.99 133.15 212.21 107.02 212.34 C 87.43 212.44 67.82 207.15 51.10 196.93 C 28.88 183.49 11.93 161.61 4.53 136.72 C -3.28 110.75 -0.67 81.78 11.84 57.70 C 26.76 28.46 55.95 6.94 88.39 1.68 M 21.14 60.51 C 32.37 93.40 43.98 126.16 55.02 159.12 C 60.10 159.16 65.19 159.14 70.27 159.14 C 73.53 150.01 76.47 140.78 79.80 131.69 C 83.01 140.83 86.15 149.99 89.28 159.16 C 94.29 159.12 99.30 159.10 104.31 159.27 C 115.79 126.34 127.08 93.34 138.47 60.39 C 133.45 60.41 128.43 60.58 123.41 60.36 C 114.31 85.73 106.09 111.41 96.76 136.71 C 93.44 127.79 90.67 118.68 87.34 109.76 C 92.95 93.27 98.69 76.83 104.43 60.38 C 99.29 60.42 94.16 60.48 89.02 60.64 C 86.09 69.53 83.03 78.38 79.98 87.23 C 76.20 78.54 73.58 69.42 70.50 60.47 C 65.41 60.49 60.32 60.42 55.24 60.65 C 61.02 76.99 66.59 93.40 72.24 109.78 C 68.96 118.85 65.79 127.96 62.93 137.17 C 53.58 111.72 45.38 85.86 36.11 60.39 C 31.12 60.32 26.13 60.46 21.14 60.51 M 143.28 75.60 C 155.19 72.87 168.07 76.66 176.94 84.97 C 180.29 81.60 183.62 78.18 187.08 74.91 C 176.87 65.24 162.74 59.59 148.61 60.60 C 146.82 65.60 145.21 70.66 143.28 75.60 M 123.97 131.52 C 122.47 136.68 120.58 141.71 118.95 146.83 C 128.23 154.39 139.90 159.34 151.99 159.18 C 165.02 159.35 177.56 153.58 187.00 144.80 C 183.68 141.40 180.27 138.09 176.95 134.69 C 170.30 140.43 161.97 144.85 152.99 144.74 C 141.81 145.52 131.29 139.59 123.97 131.52 Z" />
</g>
</svg>
