<?xml version="1.0" encoding="UTF-8" ?>
<!DOCTYPE svg PUBLIC "-//W3C//DTD SVG 1.1//EN" "http://www.w3.org/Graphics/SVG/1.1/DTD/svg11.dtd">
<svg width="885pt" height="214pt" viewBox="0 0 885 214" version="1.1" xmlns="http://www.w3.org/2000/svg">
<g id="#376fb7ff">
<path fill="#376fb7" opacity="1.00" d=" M 88.45 1.67 C 112.89 -2.42 138.77 2.15 160.09 14.88 C 184.15 28.92 202.08 52.91 208.99 79.87 C 212.30 91.99 212.43 104.66 211.71 117.11 C 209.25 142.10 197.49 166.05 179.17 183.22 C 162.62 199.01 140.83 209.20 118.09 211.64 C 90.89 214.83 62.59 206.90 41.05 189.99 C 20.56 174.08 6.15 150.47 1.71 124.88 C -2.57 100.52 1.76 74.62 14.31 53.25 C 29.75 26.22 57.70 6.66 88.45 1.67 M 21.13 60.52 C 32.38 93.40 43.97 126.17 55.02 159.13 C 60.11 159.15 65.19 159.14 70.28 159.14 C 73.50 150.01 76.51 140.80 79.77 131.68 C 83.02 140.80 86.16 149.97 89.25 159.15 C 94.27 159.13 99.30 159.10 104.32 159.27 C 115.78 126.33 127.10 93.34 138.46 60.37 C 133.44 60.45 128.43 60.55 123.41 60.37 C 114.29 85.74 106.11 111.44 96.73 136.73 C 93.49 127.78 90.65 118.70 87.34 109.78 C 92.94 93.27 98.70 76.82 104.43 60.36 C 99.30 60.45 94.16 60.47 89.03 60.63 C 86.08 69.53 83.03 78.39 79.97 87.26 C 76.23 78.54 73.57 69.43 70.50 60.47 C 65.41 60.49 60.32 60.44 55.23 60.64 C 61.02 76.98 66.59 93.39 72.24 109.78 C 68.96 118.86 65.79 127.98 62.91 137.20 C 53.63 111.72 45.35 85.89 36.13 60.39 C 31.13 60.33 26.13 60.44 21.13 60.52 M 143.29 75.58 C 155.22 72.89 168.06 76.67 176.95 84.96 C 180.30 81.57 183.65 78.18 187.09 74.89 C 176.84 65.25 162.75 59.62 148.61 60.56 C 146.86 65.58 145.20 70.62 143.29 75.58 M 123.97 131.55 C 122.43 136.69 120.61 141.74 118.92 146.83 C 127.73 153.91 138.56 158.84 149.98 159.13 C 163.69 159.91 177.08 154.04 187.01 144.81 C 183.68 141.43 180.30 138.09 176.96 134.70 C 170.07 140.64 161.38 145.09 152.07 144.77 C 141.19 145.24 131.14 139.33 123.97 131.55 Z" />
<path fill="#376fb7" opacity="1.00" d=" M 424.00 71.49 C 425.68 71.50 427.37 71.51 429.06 71.50 C 429.03 84.82 429.13 98.15 429.01 111.47 C 432.85 106.08 438.22 101.59 444.71 99.89 C 454.12 97.17 464.70 100.62 471.10 107.93 C 480.77 118.45 481.63 135.70 473.33 147.28 C 467.99 155.09 458.39 159.96 448.89 158.89 C 440.75 158.19 433.59 153.12 429.01 146.53 C 429.09 150.69 429.06 154.84 429.06 159.00 C 427.37 158.99 425.68 158.99 424.00 159.00 C 424.00 129.83 423.99 100.66 424.00 71.49 M 446.46 104.68 C 433.51 107.95 426.52 123.07 429.80 135.50 C 431.88 144.56 439.39 152.61 448.84 153.77 C 456.52 154.89 464.35 151.07 468.82 144.86 C 476.24 135.02 475.54 119.97 467.04 111.00 C 461.96 105.41 453.82 102.71 446.46 104.68 Z" />
<path fill="#376fb7" opacity="1.00" d=" M 493.72 87.67 C 499.75 79.63 508.92 73.81 518.98 72.57 C 533.95 70.74 549.50 78.59 557.24 91.48 C 556.37 94.67 552.85 95.34 550.34 96.79 C 543.25 82.55 523.38 76.10 509.64 84.59 C 494.59 93.56 489.21 113.95 495.02 129.97 C 498.64 140.59 507.54 149.90 518.88 151.83 C 530.84 153.92 543.33 147.61 549.95 137.67 C 550.52 137.50 551.64 137.15 552.21 136.98 C 554.15 138.12 556.08 139.27 558.02 140.41 C 549.32 156.22 528.74 164.90 511.56 158.64 C 498.93 154.18 489.62 142.72 486.14 129.99 C 482.10 115.73 484.67 99.53 493.72 87.67 Z" />
<path fill="#376fb7" opacity="1.00" d=" M 251.83 74.00 C 253.58 74.00 255.32 74.00 257.07 74.00 C 262.48 98.52 267.78 123.08 273.13 147.62 C 282.32 123.08 291.49 98.54 300.69 74.01 C 301.59 74.00 303.39 73.99 304.29 73.98 C 313.51 98.50 322.65 123.06 331.87 147.58 C 337.25 123.06 342.50 98.51 347.94 74.00 C 349.68 74.00 351.42 74.00 353.17 74.00 C 347.02 102.34 340.81 130.66 334.59 158.98 C 333.29 158.99 331.99 159.00 330.70 159.01 C 321.29 133.93 311.91 108.84 302.50 83.76 C 293.08 108.84 283.72 133.93 274.30 159.01 C 273.00 159.00 271.71 158.99 270.43 158.98 C 264.18 130.66 257.99 102.33 251.83 74.00 Z" />
<path fill="#376fb7" opacity="1.00" d=" M 749.95 83.31 C 750.38 82.89 751.24 82.05 751.67 81.62 C 753.88 81.93 756.90 80.82 758.19 83.31 C 758.51 87.96 758.21 92.64 758.32 97.31 C 763.50 97.42 768.70 97.10 773.89 97.42 C 776.70 98.76 776.72 104.31 773.84 105.58 C 768.67 105.90 763.48 105.58 758.31 105.69 C 758.31 117.47 758.31 129.24 758.30 141.01 C 758.25 144.09 758.79 147.58 761.41 149.57 C 764.99 152.33 769.76 152.14 774.05 152.37 C 774.60 152.93 775.17 153.48 775.76 154.03 C 775.75 155.67 775.74 157.31 775.75 158.96 C 775.15 159.54 774.57 160.13 774.01 160.73 C 767.96 160.80 761.43 160.38 756.39 156.65 C 752.09 153.59 749.94 148.25 749.96 143.08 C 749.90 130.62 749.96 118.15 749.94 105.69 C 747.08 105.71 744.23 105.67 741.39 105.67 C 741.00 105.25 740.21 104.41 739.81 103.99 C 739.81 102.33 739.81 100.67 739.81 99.01 C 740.21 98.59 741.00 97.75 741.39 97.33 C 744.24 97.33 747.08 97.29 749.94 97.31 C 749.94 92.65 749.93 87.98 749.95 83.31 Z" />
<path fill="#376fb7" opacity="1.00" d=" M 577.72 105.36 C 584.20 99.24 593.27 96.84 602.01 97.27 C 602.57 97.86 603.15 98.46 603.74 99.04 C 603.75 100.76 603.76 102.48 603.83 104.20 C 601.74 106.28 598.63 105.57 595.99 106.01 C 589.52 106.61 583.29 110.45 580.42 116.37 C 577.58 121.79 577.65 128.05 577.74 134.00 C 577.76 142.31 577.73 150.63 577.76 158.94 C 577.16 159.51 576.58 160.10 576.01 160.70 C 574.33 160.70 572.66 160.69 570.99 160.69 C 570.41 160.11 569.82 159.53 569.24 158.96 C 569.26 138.99 569.25 119.02 569.24 99.06 C 569.67 98.62 570.54 97.75 570.97 97.31 C 572.65 97.31 574.34 97.31 576.03 97.31 C 576.47 97.75 577.33 98.62 577.76 99.06 C 577.75 101.16 577.72 103.26 577.72 105.36 Z" />
<path fill="#376fb7" opacity="1.00" d=" M 612.26 111.29 C 617.69 102.16 628.40 96.26 639.07 97.43 C 650.58 98.41 660.42 107.26 663.90 118.07 C 665.47 122.39 665.72 127.02 665.79 131.57 C 665.34 131.99 664.44 132.83 664.00 133.25 C 647.99 133.27 631.99 133.21 615.99 133.28 C 617.17 138.80 619.71 144.23 624.22 147.81 C 630.81 153.41 640.92 153.61 648.22 149.30 C 650.94 147.76 652.80 145.20 655.03 143.08 C 658.13 141.72 660.26 145.33 662.68 146.68 C 658.99 152.00 654.07 156.69 647.86 158.85 C 638.23 162.38 626.67 161.00 618.77 154.23 C 606.38 144.12 603.78 124.67 612.26 111.29 M 615.99 124.73 C 629.76 124.77 643.54 124.76 657.32 124.73 C 655.88 113.74 645.32 104.27 634.00 105.90 C 624.46 107.02 617.56 115.65 615.99 124.73 Z" />
<path fill="#376fb7" opacity="1.00" d=" M 678.53 109.44 C 684.01 101.65 693.50 96.69 703.09 97.36 C 710.42 97.67 717.20 101.38 722.28 106.52 C 722.24 104.04 722.24 101.55 722.24 99.06 C 722.67 98.63 723.53 97.75 723.96 97.31 C 725.65 97.31 727.34 97.31 729.05 97.31 C 729.48 97.76 730.34 98.66 730.77 99.11 C 730.74 119.03 730.74 138.96 730.77 158.89 C 730.34 159.34 729.47 160.24 729.04 160.69 C 727.34 160.69 725.65 160.68 723.97 160.69 C 723.53 160.25 722.67 159.38 722.24 158.94 C 722.24 156.45 722.24 153.96 722.28 151.48 C 717.20 156.62 710.43 160.33 703.10 160.64 C 693.26 161.34 683.54 156.08 678.11 147.97 C 670.24 136.70 670.40 120.53 678.53 109.44 M 695.50 106.73 C 686.66 109.72 680.96 118.90 680.76 128.02 C 680.24 137.64 685.82 147.76 695.09 151.11 C 702.26 153.90 710.77 151.44 715.85 145.79 C 724.55 136.61 724.36 120.62 715.36 111.70 C 710.36 106.50 702.37 104.28 695.50 106.73 Z" />
<path fill="#376fb7" opacity="1.00" d=" M 804.47 97.77 C 813.17 96.06 822.47 99.05 828.79 105.19 C 838.20 114.11 841.14 128.77 836.60 140.81 C 833.39 149.67 826.03 157.14 816.85 159.67 C 808.03 162.26 798.09 159.83 791.25 153.75 C 781.29 145.18 777.81 130.36 782.10 118.05 C 785.36 108.04 793.98 99.69 804.47 97.77 M 803.47 106.74 C 793.99 109.97 788.23 120.23 788.76 129.98 C 788.96 139.21 794.81 148.51 803.83 151.37 C 811.07 153.83 819.39 151.07 824.27 145.32 C 832.39 136.24 832.22 121.06 823.84 112.20 C 818.85 106.66 810.58 104.19 803.47 106.74 Z" />
<path fill="#376fb7" opacity="1.00" d=" M 858.72 105.36 C 865.19 99.25 874.25 96.84 882.99 97.27 C 883.43 97.71 884.31 98.59 884.75 99.03 C 884.74 100.68 884.74 102.33 884.76 103.98 C 884.32 104.40 883.45 105.22 883.01 105.64 C 877.18 105.62 870.94 106.43 866.31 110.30 C 861.02 114.49 858.83 121.46 858.77 128.00 C 858.72 138.31 858.76 148.61 858.76 158.92 C 858.15 159.52 857.57 160.13 857.00 160.75 C 854.63 160.67 851.93 161.13 850.18 159.18 C 850.37 139.44 850.16 119.70 850.28 99.97 C 850.36 96.45 854.66 97.40 857.03 97.27 C 857.46 97.72 858.33 98.62 858.76 99.07 C 858.75 101.16 858.72 103.26 858.72 105.36 Z" />
<path fill="#376fb7" opacity="1.00" d=" M 362.66 110.68 C 367.81 103.19 376.86 98.36 386.03 99.04 C 395.91 99.52 404.77 106.26 408.90 115.09 C 411.46 120.18 412.10 125.93 412.12 131.56 C 395.43 131.58 378.74 131.53 362.05 131.59 C 363.06 140.07 367.85 148.49 375.87 152.07 C 385.75 156.59 398.22 152.91 404.32 143.99 C 405.66 145.01 407.01 146.03 408.36 147.05 C 403.82 153.29 396.93 157.94 389.15 158.75 C 380.72 160.05 371.78 157.27 365.83 151.11 C 355.31 140.69 354.09 122.65 362.66 110.68 M 371.56 108.55 C 365.97 112.83 362.93 119.63 362.07 126.48 C 377.08 126.51 392.09 126.52 407.10 126.48 C 406.67 117.50 400.84 109.04 392.49 105.65 C 385.66 102.72 377.35 103.91 371.56 108.55 Z" />
</g>
</svg>
